PathFileType	4	(X/Y/Z)	RBDS023\RBDS023runT45.trc
DataRate	CameraRate	NumFrames	NumMarkers	Units	OrigDataRate	OrigDataStartFrame	OrigNumFrames
150.000000	150.000000	5	33	mm	150.000000	3375	4500
Frame#	Time	L.ASIS			L.Heel.Bottom			L.Heel.Lateral			L.Heel.Top			L.Iliac.Crest			L.MT1			L.MT5			L.PSIS			L.Shank.Bottom.Lateral			L.Shank.Bottom.Medial			L.Shank.Top.Lateral			L.Shank.Top.Medial			L.Thigh.Bottom.Lateral			L.Thigh.Bottom.Medial			L.Thigh.Top.Lateral			L.Thigh.Top.Medial			R.ASIS			R.ASY			R.Heel.Bottom			R.Heel.Lateral			R.Heel.Top			R.Iliac.Crest			R.MT1			R.MT5			R.PSIS			R.Shank.Bottom.Lateral			R.Shank.Bottom.Medial			R.Shank.Top.Lateral			R.Shank.Top.Medial			R.Thigh.Bottom.Lateral			R.Thigh.Bottom.Medial			R.Thigh.Top.Lateral			R.Thigh.Top.Medial			
		X1	Y1	Z1	X2	Y2	Z2	X3	Y3	Z3	X4	Y4	Z4	X5	Y5	Z5	X6	Y6	Z6	X7	Y7	Z7	X8	Y8	Z8	X9	Y9	Z9	X10	Y10	Z10	X11	Y11	Z11	X12	Y12	Z12	X13	Y13	Z13	X14	Y14	Z14	X15	Y15	Z15	X16	Y16	Z16	X17	Y17	Z17	X18	Y18	Z18	X19	Y19	Z19	X20	Y20	Z20	X21	Y21	Z21	X22	Y22	Z22	X23	Y23	Z23	X24	Y24	Z24	X25	Y25	Z25	X26	Y26	Z26	X27	Y27	Z27	X28	Y28	Z28	X29	Y29	Z29	X30	Y30	Z30	X31	Y31	Z31	X32	Y32	Z32	X33	Y33	Z33	

3376	22.5	2338.140251795438	967.1032212713852	926.8716811892061	1942.911612046675	51.91808727725197	1034.854079242881	1970.8201083234	70.6176126732211	994.3192429149422	1960.866439651544	96.27360487750161	1038.456809977112	2251.541852043007	1030.833904877996	890.29382405891	2171.331160495048	30.62868419987619	1057.232010883487	2125.97646236791	36.67010489668837	945.0516264634028	2166.182543885728	1010.048320448973	1004.893353686836	2075.950468288805	154.6168637298768	968.1346324760975	2039.174606468179	180.3003911893066	992.4167040616076	2109.275182405919	222.8014724960277	939.8910229204575	2074.721432521325	252.9600336964194	967.0444148874218	2265.756812493867	610.7977795191661	871.1990564061945	2207.127687609549	605.2799585305742	910.3025838253587	2247.645669739559	719.329303511405	863.9505620426149	2192.5587656362	714.7833128992165	903.6212607577129	2359.884162454248	962.5809394715881	1144.356657173282	-8146972937.736852	-13386649202.08963	10847949157.46121	2025.689714628289	474.8921915399618	1096.044285837451	2056.324767765773	454.7803414691064	1137.910501515023	2072.831064607654	477.9468754391933	1090.195816641499	2285.069889004642	1043.971714106144	1194.531334096962	2089.131661894737	261.7072114488197	1061.633891626625	2091.755600590879	293.2203556011757	1171.698238553263	2179.048431387789	1011.143790928273	1108.648492157856	2188.030115215705	435.9465211783436	1147.021620824738	2173.523932921246	484.1134912174437	1123.647530284269	2260.752993297107	468.2019015080942	1164.220436774666	2246.091963198117	513.9307838650561	1139.84282693041	2457.840881601226	617.5716711953481	1190.397929642957	2413.526114270918	586.0656892559196	1142.448516402891	2380.082677192419	694.1840626181748	1207.238432710665	2337.490854397118	662.0536764487595	1162.622480315377	
3377	22.50666666666667	2340.048063569234	969.5698032778766	927.3582119326487	1913.575324512353	58.89872877142891	1034.616630427531	1942.038218402058	76.17310683390285	993.8724519574749	1932.799018808349	102.7678862037645	1037.624986051967	2256.131453650823	1034.893341392864	889.2150667563077	2140.525423618744	29.97931505586912	1057.357579168351	2095.530627089931	36.55844981674107	945.4323409715565	2167.853563006942	1013.802722613277	1003.488072733151	2048.588037882166	159.5895309159857	967.8920441128208	2012.316051651229	185.6313357153896	992.5862096080829	2082.953947382084	227.4640525187254	940.1505495510754	2048.823859990515	257.952611409171	967.5097941660691	2252.150840570725	613.2556689576332	872.610119243461	2193.184062081295	610.71368661735	911.5367942607397	2239.323789495689	722.5523362780377	864.9340783139214	2183.908130676578	720.9040565748845	904.4943576373835	2361.650044871066	968.4265740216438	1143.857623697201	-8162374572.218098	-13411954885.16132	10868457116.16087	2040.413788909101	450.4868298643971	1093.870777182074	2072.382085363855	432.6705080756798	1135.77828929618	2087.174309536838	457.6011715615499	1088.354429833234	2286.510968200429	1049.568498191737	1193.822326291251	2121.99776478736	243.5789595498466	1058.564333352097	2120.996148853748	274.4341451040953	1168.989390270003	2180.238805253106	1015.551456239425	1107.752844210997	2205.619108022782	424.5475472486426	1145.263631941925	2187.737964774481	471.6102589702058	1121.902596915299	2275.754854016162	462.1021364181885	1162.718753910574	2257.897723023294	506.6622555747227	1138.311335139539	2466.303877633182	627.9360642071264	1190.20910529201	2423.290181371005	595.9417519307164	1141.716017607228	2386.438045534926	702.4454531691781	1207.304562412748	2345.135362651221	669.6623143089541	1161.845185262724	
3378	22.51333333333334	2342.509662257638	972.391986307648	927.9051254918257	1885.343028319862	67.56375534948204	1034.086547558787	1914.376242457	83.0458568967626	993.1189430562744	1906.119334988291	110.6651631981731	1036.438394440307	2261.923733678602	1039.230468212402	888.062071057095	2109.813510566099	29.33044014693775	1057.4499646135	2065.399155963921	36.55292150913747	945.6428264287077	2169.948085478724	1017.931651958879	1001.976915342707	2022.258445805634	165.6409455109172	967.3231725868029	1986.438745680623	191.8854504299576	992.4933643485896	2057.443269389258	233.3451489470497	940.1704693943278	2023.65390800989	264.001667826443	967.7983908712703	2238.735271382239	616.9656862283241	874.2658835813789	2179.718723185804	617.517104716344	913.2337464506174	2231.238809049989	726.7534867632918	866.0323694581433	2175.747240861066	728.0823307864619	905.6110458153332	2363.739130250152	974.4736129605091	1143.215079317559	-8177795605.362761	-13437292439.5202	10888990905.33881	2056.744641613523	425.2085496652529	1091.219852837776	2089.805032470289	409.8335936518783	1133.214310552107	2102.806401994047	436.3506499828903	1086.086149688051	2288.580647782142	1055.603609444646	1193.107868902734	2156.068876649033	226.0635341468085	1055.440959723528	2151.36990124498	256.0571257723225	1166.156969416993	2181.793387518277	1020.324978089064	1106.802461553803	2223.696729856308	412.7560033807941	1143.312511621363	2202.523471397639	458.375999503626	1119.78380139882	2290.788081060605	455.5255247618813	1161.032718242415	2269.82082897899	498.6008443750205	1136.433795899441	2473.72995619812	638.1775498473847	1190.077367836467	2431.977213246373	605.9013489092366	1140.937333513804	2392.12817520107	710.7939025735524	1207.382216639342	2352.002292061275	677.5585679290999	1161.108426531301	
3379	22.52	2345.482061106946	975.5484948620195	928.4795699332939	1858.575255776307	77.9673577199458	1033.271105713546	1888.148521292608	91.28454183562967	992.0714041743935	1881.179650299993	119.9618608565423	1034.918092740784	2268.771690836388	1043.78379630137	886.8992521919436	2079.335050910584	28.73813287703323	1057.469435730345	2035.70523332623	36.72413711738697	945.6529865953569	2172.443017091233	1022.401134359349	1000.370513324358	1997.209929519647	172.7115588766345	966.4061437335929	1961.793590196626	198.9847476137107	992.1275418423426	2032.964348412661	240.3991390557341	939.9377677600258	1999.446804694322	271.0428373269739	967.9201967062403	2225.62211137074	621.9359015501561	876.1200090479302	2166.847695966133	625.662005250632	915.3410486276007	2223.479076653407	731.927098836672	867.2246451258802	2168.173931984556	736.2742685786051	906.9552514570258	2366.088060438159	980.6032733814154	1142.432347252757	-8193236049.379651	-13462661885.22382	10909550541.25197	2074.859958117417	399.2777855518644	1088.111669502383	2108.745935819038	386.4712717574871	1130.248929058935	2119.900139815857	414.3732433386959	1083.401406034851	2291.090150035273	1061.970894195571	1192.384949634887	2191.305761024006	209.3276780532667	1052.337303634938	2182.8762236245	238.2566777831182	1163.254014828982	2183.677875805399	1025.398239800033	1105.787053498813	2242.362619456316	400.6137423045341	1141.18723416502	2218.033508966096	444.4687898964561	1117.319727173649	2305.957440315478	448.4326271763184	1159.188848903758	2282.019757928061	489.7298382766772	1134.241291784327	2480.183241474698	648.1476536098681	1190.005375045089	2439.603135818916	615.6944125700496	1140.170408433778	2397.18144923248	719.084136373179	1207.44258232504	2358.078344714314	685.5235696960408	1160.466146748086	
3380	22.52666666666667	2348.907312127466	978.9993988155396	929.0600856758147	1833.61641033436	90.09298388302896	1032.218351960954	1863.646310143478	100.8941233083656	990.7832467912287	1858.299081462861	130.5979525217796	1033.128363159616	2276.491893979496	1048.507093488316	885.7957257120719	2049.269239928614	28.28820023030134	1057.377164271398	2006.578524380305	37.17768776639299	945.4548362677793	2175.311967159338	1027.171909956126	998.6744867239397	1973.655659501892	180.7059904878662	965.1550890461898	1938.601292377691	206.8187730021452	991.5150994796718	2009.707050336516	248.5392139004309	939.4709626575701	1976.415309149729	278.9744972473386	967.9197820865805	2212.921393393728	628.1315166155523	878.0994236310862	2154.668459901142	635.0687670292182	917.7577620404004	2216.13509494667	738.0323467748366	868.4735786617067	2161.274775348589	745.3956364354526	908.4820305060218	2368.631669875846	986.7131232652996	1141.526746600804	-8208695916.477578	-13488063242.32972	10930136040.15732	2094.886538091148	372.9120057440726	1084.575449836898	2129.313356555374	362.7814805763498	1126.920603724062	2138.581865443888	391.850776589575	1080.320595179548	2293.851529168729	1068.560403964066	1191.65205915894	2227.651551307611	193.5167610005999	1049.318923983464	2215.490991990765	221.1796900167774	1160.328505280042	2185.852740858928	1030.705545840996	1104.693854086003	2261.695642657068	388.1648625741853	1138.909979445637	2234.389491191336	429.9618463460633	1114.551969403067	2321.357805785545	440.7947818473857	1157.218006959005	2294.631408793288	480.0548085247656	1131.778064789248	2485.727696998455	657.7074354444646	1189.979003390526	2446.176635031775	625.0804494868098	1139.477181192131	2401.626467101587	727.1825112764927	1207.44664904111	2363.354804617039	693.3523157259001	1159.959674876848	
